<svg width="153" height="81" viewBox="0 0 153 81" fill="none" xmlns="http://www.w3.org/2000/svg">
<g clip-path="url(#clip0_6_109)">
<path d="M6.10352e-05 43.6186L0.613327 34.4963H74.3586L73.7453 43.6186H6.10352e-05ZM9.96564 1.22656H69.5291L68.9159 10.0423H9.35237L9.96564 1.22656ZM67.996 20.9277L67.3827 29.7434H8.2025L8.81576 20.9277H67.996ZM8.12584 56.3439L8.7391 47.9881H64.623L63.3198 67.306H18.7047L18.4747 70.679H66.3095L65.6962 79.0347H6.43936L7.81921 59.4869H52.4343L52.6643 56.2672H8.12584V56.3439ZM19.5479 13.1853H30.6634L29.6668 27.827H18.5514L19.5479 13.1853ZM42.852 39.3257H31.43L32.3499 26.0638H43.7719L42.852 39.3257ZM47.2216 13.1853H58.337L57.3405 27.827H46.225L47.2216 13.1853Z" fill="black"/>
<path d="M84.6308 6.74593H115.907L115.294 15.7916H95.4396L94.1364 34.2663H97.4327C101.112 34.2663 104.562 34.1129 107.858 33.883C111.155 33.5763 114.221 33.2697 116.981 32.8097L117.211 41.7021C114.374 42.1621 111.155 42.622 107.628 42.9286C104.102 43.2353 99.9625 43.3886 95.2096 43.3886H82.0244L84.5541 6.74593H84.6308ZM126.103 53.1242C125.873 56.0372 126.793 58.4136 128.786 60.4067C130.779 62.3998 133.692 64.163 137.602 65.7728C141.435 67.3826 146.111 68.9925 151.63 70.6789L147.874 79.9546C142.354 78.1915 137.602 76.505 133.539 74.8185C129.476 73.132 126.256 71.2155 123.727 68.8391C121.197 66.4627 119.51 63.3964 118.514 59.5635H121.273C119.74 63.3964 117.517 66.4627 114.604 68.8391C111.691 71.2155 108.088 73.2087 103.872 74.8185C99.6558 76.4283 94.5964 78.1148 88.847 79.8013L86.3173 70.6789C91.99 68.9925 96.8961 67.3826 100.959 65.7728C105.022 64.163 108.242 62.3998 110.541 60.3301C112.841 58.337 114.144 55.8839 114.298 52.9709L114.604 48.7547H126.333L126.026 52.9709L126.103 53.1242ZM131.009 46.1483H120.277L123.42 1.07322H134.152L131.009 46.1483ZM126.64 18.628H144.808L144.194 28.0569H126.026L126.64 18.628ZM148.564 53.8908H137.602L141.281 0H152.243L148.564 53.8908Z" fill="black"/>
</g>
<defs>
<clipPath id="clip0_6_109">
<rect width="152.32" height="80.0312" fill="white"/>
</clipPath>
</defs>
</svg>
