<svg width="600" height="102" viewBox="0 0 600 102" fill="none" xmlns="http://www.w3.org/2000/svg">
<path d="M80.0391 0.0849609L78.3248 19.5607H28.3003L26.4456 40.9195H64.6103L62.8958 60.3952H24.7313L21.1621 101.286H0L8.8527 0.0849609H80.0391Z" fill="black"/>
<path d="M121.941 101.258C92.292 101.258 72.3666 79.1122 74.8678 50.6714C77.3409 22.3149 101.173 0.0849609 130.794 0.0849609C160.415 0.0849609 180.425 22.3149 177.952 50.6714C175.45 79.1122 151.647 101.258 121.941 101.258ZM129.108 19.4764C110.981 19.4764 98.0533 33.2472 96.5357 50.6714C95.0181 68.1799 105.529 81.7821 123.656 81.7821C141.782 81.7821 154.766 68.1518 156.284 50.6714C157.802 33.2472 147.291 19.4764 129.08 19.4764H129.108Z" fill="black"/>
<path d="M211.929 0L204.791 81.7252H254.815L253.101 101.257H181.914L190.767 0H211.929Z" fill="black"/>
<path d="M420.992 0.0849609L412.139 101.286H390.977L394.968 55.6457H349.608L345.618 101.286H324.512L333.337 0.0849609H354.442L351.295 36.0857H396.654L399.801 0.0849609H420.964H420.992Z" fill="black"/>
<path d="M490.183 84.3942H445.526L437.854 101.256H415.905L464.889 0.139648H485.77L516.993 101.256H495.045L490.183 84.3942ZM454.463 65.2838H484.59L473.18 24.7865L454.463 65.2838Z" fill="black"/>
<path d="M599 0.0849609L597.286 19.6451H563.983L556.845 101.286H535.683L542.821 19.6451H509.574L511.289 0.0849609H599Z" fill="black"/>
<path d="M270.806 0.0849609L269.092 19.617L261.953 101.258H283.115L290.254 19.617H323.556L325.271 0.0849609H270.806Z" fill="black"/>
<path d="M242.393 0.0849609H261.954L260.239 19.617H240.679L242.393 0.0849609Z" fill="#2157ED"/>
</svg>
