<svg width="300" height="101" viewBox="0 0 300 101" fill="none" xmlns="http://www.w3.org/2000/svg">
<path d="M40.0864 0.0429688L39.2278 9.7971H14.1738L13.2449 20.4943H32.3591L31.5004 30.2484H12.3863L10.5987 50.7278H0L4.43374 0.0429688H40.0864Z" fill="black"/>
<path d="M61.0724 50.7138C46.223 50.7138 36.2437 39.6225 37.4964 25.3784C38.735 11.1765 50.6708 0.0429688 65.5061 0.0429688C80.3414 0.0429688 90.363 11.1765 89.1244 25.3784C87.8717 39.6225 75.9499 50.7138 61.0724 50.7138ZM64.6616 9.75487C55.583 9.75487 49.1085 16.6517 48.3484 25.3784C47.5883 34.1472 52.8524 40.9596 61.931 40.9596C71.0095 40.9596 77.5123 34.1332 78.2724 25.3784C79.0325 16.6517 73.7683 9.75487 64.6476 9.75487H64.6616Z" fill="black"/>
<path d="M106.141 0L102.566 40.9307H127.62L126.762 50.713H91.109L95.5427 0H106.141Z" fill="black"/>
<path d="M210.847 0.0429688L206.413 50.7278H195.815L197.814 27.8697H175.096L173.097 50.7278H162.527L166.947 0.0429688H177.517L175.941 18.0733H198.658L200.234 0.0429688H210.833H210.847Z" fill="black"/>
<path d="M245.5 42.2668H223.135L219.292 50.712H208.3L232.833 0.0693359H243.291L258.928 50.712H247.935L245.5 42.2668ZM227.611 32.6957H242.699L236.985 12.4133L227.611 32.6957Z" fill="black"/>
<path d="M300 0.0429688L299.141 9.83932H282.462L278.887 50.7278H268.289L271.864 9.83932H255.213L256.071 0.0429688H300Z" fill="black"/>
<path d="M135.629 0.0429688L134.77 9.82525L131.195 50.7138H141.794L145.369 9.82525H162.048L162.907 0.0429688H135.629Z" fill="black"/>
<path d="M121.399 0.0429688H131.195L130.337 9.82525H120.54L121.399 0.0429688Z" fill="#2157ED"/>
<path d="M1.824 77.7595H12.624V80.2315H4.848V85.0075H11.856V87.5035H4.848V94.7275H1.824V77.7595ZM19.4773 94.9675C17.5733 94.9675 16.0773 94.4155 14.9893 93.3115C13.9013 92.1915 13.3573 90.6155 13.3573 88.5835C13.3573 86.5355 13.9013 84.9515 14.9893 83.8315C16.0933 82.6955 17.5893 82.1275 19.4773 82.1275C21.3493 82.1275 22.8373 82.6875 23.9413 83.8075C25.0613 84.9115 25.6213 86.5035 25.6213 88.5835C25.6213 90.6475 25.0693 92.2315 23.9653 93.3355C22.8613 94.4235 21.3653 94.9675 19.4773 94.9675ZM19.4773 92.5915C20.5653 92.5915 21.3733 92.2635 21.9013 91.6075C22.4293 90.9515 22.6933 89.9435 22.6933 88.5835C22.6933 85.8635 21.6213 84.5035 19.4773 84.5035C17.3493 84.5035 16.2853 85.8635 16.2853 88.5835C16.2853 89.9435 16.5493 90.9515 17.0773 91.6075C17.6053 92.2635 18.4053 92.5915 19.4773 92.5915ZM31.1633 94.7275H28.2353V77.4955H31.1633V94.7275ZM42.9874 77.4955H45.9154V94.7275H42.9874V77.4955ZM39.0754 94.9675C37.4754 94.9675 36.1874 94.4315 35.2114 93.3595C34.2514 92.2875 33.7714 90.6875 33.7714 88.5595C33.7714 87.0555 34.0034 85.8315 34.4674 84.8875C34.9474 83.9435 35.5874 83.2475 36.3874 82.7995C37.1874 82.3515 38.0834 82.1275 39.0754 82.1275C40.2594 82.1275 41.2114 82.4075 41.9314 82.9675C42.6674 83.5275 43.1954 84.2955 43.5154 85.2715C43.8514 86.2315 44.0194 87.3275 44.0194 88.5595C44.0194 89.7755 43.8514 90.8715 43.5154 91.8475C43.1954 92.8075 42.6674 93.5675 41.9314 94.1275C41.2114 94.6875 40.2594 94.9675 39.0754 94.9675ZM39.8914 92.6395C41.9554 92.6395 42.9874 91.2795 42.9874 88.5595C42.9874 85.8235 41.9554 84.4555 39.8914 84.4555C37.7634 84.4555 36.6994 85.8235 36.6994 88.5595C36.6994 91.2795 37.7634 92.6395 39.8914 92.6395ZM64.1393 82.3435C64.0753 81.5915 63.7953 81.0155 63.2993 80.6155C62.8193 80.2155 62.0593 80.0155 61.0193 80.0155C59.9793 80.0155 59.2033 80.2315 58.6913 80.6635C58.1953 81.0795 57.9473 81.6475 57.9473 82.3675C57.9473 82.8475 58.0993 83.2395 58.4033 83.5435C58.7233 83.8315 59.0993 84.0555 59.5312 84.2155C59.9633 84.3755 60.3633 84.5115 60.7313 84.6235L62.2673 85.0795C62.7313 85.2075 63.2593 85.3835 63.8513 85.6075C64.4433 85.8155 65.0113 86.0955 65.5553 86.4475C66.0993 86.7995 66.5473 87.2635 66.8993 87.8395C67.2513 88.3995 67.4273 89.0955 67.4273 89.9275C67.4273 91.4635 66.8833 92.7035 65.7953 93.6475C64.7233 94.5755 63.1153 95.0395 60.9713 95.0395C58.8913 95.0395 57.3153 94.5835 56.2433 93.6715C55.1873 92.7595 54.6193 91.5275 54.5393 89.9755H57.5873C57.6513 90.8555 57.9633 91.5035 58.5233 91.9195C59.0993 92.3195 59.9153 92.5195 60.9713 92.5195C62.0913 92.5195 62.9473 92.2875 63.5393 91.8235C64.1313 91.3595 64.4273 90.7115 64.4273 89.8795C64.4273 89.2075 64.1553 88.7195 63.6113 88.4155C63.0673 88.1115 62.3953 87.8395 61.5953 87.5995L59.6513 87.0475C58.2273 86.6315 57.0913 86.0635 56.2433 85.3435C55.4113 84.6235 54.9953 83.6555 54.9953 82.4395C54.9953 81.3835 55.2513 80.4955 55.7633 79.7755C56.2913 79.0395 57.0113 78.4795 57.9233 78.0955C58.8513 77.7115 59.9073 77.5195 61.0913 77.5195C62.3553 77.5195 63.4273 77.7275 64.3073 78.1435C65.2033 78.5435 65.8913 79.1115 66.3713 79.8475C66.8513 80.5675 67.0912 81.3995 67.0912 82.3435H64.1393ZM72.9551 82.3915V99.5755H70.0271V82.3915H72.9551ZM76.8671 94.9675C75.6991 94.9675 74.7471 94.6875 74.0111 94.1275C73.2911 93.5675 72.7631 92.8075 72.4271 91.8475C72.0911 90.8875 71.9231 89.7995 71.9231 88.5835C71.9231 87.3675 72.0911 86.2795 72.4271 85.3195C72.7631 84.3435 73.2911 83.5755 74.0111 83.0155C74.7471 82.4395 75.6991 82.1515 76.8671 82.1515C77.8911 82.1515 78.8031 82.3835 79.6031 82.8475C80.4031 83.2955 81.0271 83.9995 81.4751 84.9595C81.9391 85.9035 82.1711 87.1115 82.1711 88.5835C82.1711 90.7115 81.6831 92.3115 80.7071 93.3835C79.7471 94.4395 78.4671 94.9675 76.8671 94.9675ZM76.0751 92.6155C78.2031 92.6155 79.2671 91.2715 79.2671 88.5835C79.2671 85.8635 78.2031 84.5035 76.0751 84.5035C73.9951 84.5035 72.9551 85.8635 72.9551 88.5835C72.9551 91.2715 73.9951 92.6155 76.0751 92.6155ZM95.9739 94.7275H94.2939C93.5739 94.7275 93.0299 94.4795 92.6619 93.9835C92.2939 93.4875 92.0939 92.8555 92.0619 92.0875H92.6139C92.3419 92.9515 91.8779 93.6475 91.2219 94.1755C90.5659 94.7035 89.6699 94.9675 88.5339 94.9675C87.1739 94.9675 86.0699 94.6555 85.2219 94.0315C84.3899 93.4075 83.9739 92.4395 83.9739 91.1275C83.9739 90.3595 84.1179 89.7275 84.4059 89.2315C84.7099 88.7195 85.1019 88.3195 85.5819 88.0315C86.0779 87.7435 86.6219 87.5435 87.2139 87.4315C87.8059 87.3195 88.3979 87.2635 88.9899 87.2635H92.0619V86.4235C92.0619 85.0635 91.2859 84.3835 89.7339 84.3835C88.9659 84.3835 88.3979 84.5275 88.0299 84.8155C87.6619 85.1035 87.4379 85.5275 87.3579 86.0875H84.4299C84.4939 85.2395 84.7659 84.5275 85.2459 83.9515C85.7419 83.3595 86.3819 82.9115 87.1659 82.6075C87.9659 82.2875 88.8459 82.1275 89.8059 82.1275C90.3659 82.1275 90.9419 82.1915 91.5339 82.3195C92.1259 82.4475 92.6779 82.6795 93.1899 83.0155C93.7179 83.3355 94.1419 83.7915 94.4619 84.3835C94.7819 84.9595 94.9419 85.7035 94.9419 86.6155V92.3515H95.9739V94.7275ZM86.8059 91.0555C86.8059 92.1595 87.4859 92.7115 88.8459 92.7115C89.8699 92.7115 90.6619 92.4715 91.2219 91.9915C91.7819 91.5115 92.0619 90.8795 92.0619 90.0955V89.3275H89.0139C87.5419 89.3275 86.8059 89.9035 86.8059 91.0555ZM103.5 94.9675C101.5 94.9675 99.9802 94.4075 98.9402 93.2875C97.9162 92.1675 97.4042 90.5915 97.4042 88.5595C97.4042 86.5115 97.9242 84.9275 98.9642 83.8075C100.02 82.6875 101.516 82.1275 103.452 82.1275C104.476 82.1275 105.388 82.3195 106.188 82.7035C107.004 83.0875 107.652 83.6075 108.132 84.2635C108.628 84.9035 108.884 85.6395 108.9 86.4715H105.972C105.956 85.9755 105.756 85.5275 105.372 85.1275C105.004 84.7115 104.372 84.5035 103.476 84.5035C102.308 84.5035 101.492 84.8395 101.028 85.5115C100.564 86.1675 100.332 87.1835 100.332 88.5595C100.332 89.9195 100.564 90.9355 101.028 91.6075C101.492 92.2635 102.308 92.5915 103.476 92.5915C104.356 92.5915 104.988 92.4235 105.372 92.0875C105.756 91.7355 105.972 91.2635 106.02 90.6715H108.948C108.932 91.4075 108.7 92.1035 108.252 92.7595C107.82 93.4155 107.196 93.9515 106.38 94.3675C105.58 94.7675 104.62 94.9675 103.5 94.9675ZM112.349 87.4315H119.549C119.517 86.4875 119.253 85.7515 118.757 85.2235C118.277 84.6795 117.589 84.4075 116.693 84.4075C115.621 84.4075 114.837 84.7195 114.341 85.3435C113.845 85.9675 113.597 87.0315 113.597 88.5355C113.597 90.0715 113.837 91.1515 114.317 91.7755C114.797 92.3835 115.645 92.6875 116.861 92.6875C117.709 92.6875 118.309 92.5675 118.661 92.3275C119.013 92.0875 119.237 91.7435 119.333 91.2955H122.357C122.197 92.3675 121.669 93.2475 120.773 93.9355C119.877 94.6235 118.573 94.9675 116.861 94.9675C114.845 94.9675 113.309 94.4235 112.253 93.3355C111.213 92.2315 110.693 90.6475 110.693 88.5835C110.693 86.5035 111.221 84.9115 112.277 83.8075C113.333 82.6875 114.805 82.1275 116.693 82.1275C118.453 82.1275 119.853 82.6635 120.893 83.7355C121.949 84.7915 122.477 86.3915 122.477 88.5355V89.4475H112.325L112.349 87.4315ZM126.423 98.4475H124.503L125.727 91.4395H128.535L126.423 98.4475ZM151.884 77.7595V88.6315C151.884 90.5675 151.324 92.1195 150.204 93.2875C149.084 94.4555 147.38 95.0395 145.092 95.0395C142.804 95.0395 141.1 94.4555 139.98 93.2875C138.86 92.1195 138.3 90.5675 138.3 88.6315V77.7595H141.324V88.4395C141.324 89.7035 141.588 90.7035 142.116 91.4395C142.644 92.1595 143.636 92.5195 145.092 92.5195C146.548 92.5195 147.54 92.1595 148.068 91.4395C148.612 90.7035 148.884 89.7035 148.884 88.4395V77.7595H151.884ZM158.124 94.7275H155.196V82.3915H158.124L158.1 83.8795C158.468 83.3355 158.908 82.9115 159.42 82.6075C159.932 82.2875 160.604 82.1275 161.436 82.1275C162.348 82.1275 163.148 82.2875 163.836 82.6075C164.524 82.9275 165.06 83.4555 165.444 84.1915C165.828 84.9115 166.02 85.8795 166.02 87.0955V94.7275H163.092V87.1195C163.092 86.2075 162.9 85.5435 162.516 85.1275C162.132 84.7115 161.556 84.5035 160.788 84.5035C159.892 84.5035 159.22 84.7435 158.772 85.2235C158.34 85.6875 158.124 86.4395 158.124 87.4795V94.7275ZM173.004 94.7275H170.076V80.7115C170.076 79.8155 170.38 79.0555 170.988 78.4315C171.612 77.8075 172.5 77.4955 173.652 77.4955H176.076V79.8235H173.004V94.7275ZM168.108 84.7195V82.3915H175.716V84.7195H168.108ZM182.72 94.9675C180.816 94.9675 179.32 94.4155 178.232 93.3115C177.144 92.1915 176.6 90.6155 176.6 88.5835C176.6 86.5355 177.144 84.9515 178.232 83.8315C179.336 82.6955 180.832 82.1275 182.72 82.1275C184.592 82.1275 186.08 82.6875 187.184 83.8075C188.304 84.9115 188.864 86.5035 188.864 88.5835C188.864 90.6475 188.312 92.2315 187.208 93.3355C186.104 94.4235 184.608 94.9675 182.72 94.9675ZM182.72 92.5915C183.808 92.5915 184.616 92.2635 185.144 91.6075C185.672 90.9515 185.936 89.9435 185.936 88.5835C185.936 85.8635 184.864 84.5035 182.72 84.5035C180.592 84.5035 179.528 85.8635 179.528 88.5835C179.528 89.9435 179.792 90.9515 180.32 91.6075C180.848 92.2635 181.648 92.5915 182.72 92.5915ZM194.405 94.7275H191.477V77.4955H194.405V94.7275ZM206.23 77.4955H209.158V94.7275H206.23V77.4955ZM202.318 94.9675C200.718 94.9675 199.43 94.4315 198.454 93.3595C197.494 92.2875 197.014 90.6875 197.014 88.5595C197.014 87.0555 197.246 85.8315 197.71 84.8875C198.19 83.9435 198.83 83.2475 199.63 82.7995C200.43 82.3515 201.326 82.1275 202.318 82.1275C203.502 82.1275 204.454 82.4075 205.174 82.9675C205.91 83.5275 206.438 84.2955 206.758 85.2715C207.094 86.2315 207.262 87.3275 207.262 88.5595C207.262 89.7755 207.094 90.8715 206.758 91.8475C206.438 92.8075 205.91 93.5675 205.174 94.1275C204.454 94.6875 203.502 94.9675 202.318 94.9675ZM203.134 92.6395C205.198 92.6395 206.23 91.2795 206.23 88.5595C206.23 85.8235 205.198 84.4555 203.134 84.4555C201.006 84.4555 199.942 85.8235 199.942 88.5595C199.942 91.2795 201.006 92.6395 203.134 92.6395ZM218.597 77.7595H221.621V92.1835H228.965V94.7275H218.597V77.7595ZM233.381 82.3915V94.7275H230.477V82.3915H233.381ZM230.405 77.4955H233.453V80.5195H230.405V77.4955ZM240.316 94.7275H237.388V80.7115C237.388 79.8155 237.692 79.0555 238.3 78.4315C238.924 77.8075 239.812 77.4955 240.964 77.4955H243.388V79.8235H240.316V94.7275ZM235.42 84.7195V82.3915H243.028V84.7195H235.42ZM245.568 87.4315H252.768C252.736 86.4875 252.472 85.7515 251.976 85.2235C251.496 84.6795 250.808 84.4075 249.912 84.4075C248.84 84.4075 248.056 84.7195 247.56 85.3435C247.064 85.9675 246.816 87.0315 246.816 88.5355C246.816 90.0715 247.056 91.1515 247.536 91.7755C248.016 92.3835 248.864 92.6875 250.08 92.6875C250.928 92.6875 251.528 92.5675 251.88 92.3275C252.232 92.0875 252.456 91.7435 252.552 91.2955H255.576C255.416 92.3675 254.888 93.2475 253.992 93.9355C253.096 94.6235 251.792 94.9675 250.08 94.9675C248.064 94.9675 246.528 94.4235 245.472 93.3355C244.432 92.2315 243.912 90.6475 243.912 88.5835C243.912 86.5035 244.44 84.9115 245.496 83.8075C246.552 82.6875 248.024 82.1275 249.912 82.1275C251.672 82.1275 253.072 82.6635 254.112 83.7355C255.168 84.7915 255.696 86.3915 255.696 88.5355V89.4475H245.544L245.568 87.4315Z" fill="black"/>
</svg>
